<svg xmlns="http://www.w3.org/2000/svg" width="900" height="120" viewBox="0 0 900 120">
  <defs>
    <linearGradient id="bgCoc" x1="0%" y1="0%" x2="100%" y2="100%">
      <stop offset="0%" stop-color="#0D1117"/>
      <stop offset="100%" stop-color="#1A0533"/>
    </linearGradient>
  </defs>

  <rect width="900" height="120" rx="12" fill="url(#bgCoc)" stroke="#8B5CF6" stroke-width="1.5"/>

  <!-- Corner brackets -->
  <path d="M 20 14 L 12 14 L 12 22" fill="none" stroke="#8B5CF6" stroke-width="1.5" stroke-opacity="0.45"/>
  <path d="M 880 14 L 888 14 L 888 22" fill="none" stroke="#8B5CF6" stroke-width="1.5" stroke-opacity="0.45"/>
  <path d="M 12 98 L 12 106 L 20 106" fill="none" stroke="#8B5CF6" stroke-width="1.5" stroke-opacity="0.45"/>
  <path d="M 888 98 L 888 106 L 880 106" fill="none" stroke="#8B5CF6" stroke-width="1.5" stroke-opacity="0.45"/>

  <!-- Scales of justice icon -->
  <g transform="translate(62, 58)" fill="none" stroke="#8B5CF6" stroke-width="2" stroke-linecap="round" stroke-linejoin="round">
    <!-- Center pole -->
    <line x1="0" y1="-30" x2="0" y2="22"/>
    <!-- Beam -->
    <line x1="-28" y1="-10" x2="28" y2="-10"/>
    <!-- Left pan chains -->
    <line x1="-22" y1="-10" x2="-28" y2="4"/>
    <line x1="-28" y1="-10" x2="-34" y2="4"/>
    <!-- Left pan -->
    <path d="M -34 4 Q -28 12 -22 4"/>
    <!-- Right pan chains -->
    <line x1="22" y1="-10" x2="28" y2="4"/>
    <line x1="28" y1="-10" x2="34" y2="4"/>
    <!-- Right pan -->
    <path d="M 22 4 Q 28 12 34 4"/>
    <!-- Top circle -->
    <circle cx="0" cy="-30" r="3.5" fill="#8B5CF6" stroke="none"/>
    <!-- Base -->
    <line x1="-14" y1="22" x2="14" y2="22"/>
  </g>

  <line x1="118" y1="20" x2="118" y2="100" stroke="#8B5CF6" stroke-opacity="0.2" stroke-width="1"/>

  <text x="140" y="56" font-family="'Fira Code', 'Courier New', monospace" font-size="26" font-weight="700" fill="#8B5CF6" letter-spacing="4">CODE OF CONDUCT</text>
  <text x="142" y="80" font-family="'Fira Code', 'Courier New', monospace" font-size="12" fill="#A78BFA" letter-spacing="1.5">Compromisos del equipo  ·  Comportamiento esperado  ·  Consecuencias</text>

  <text x="878" y="28" font-family="'Fira Code', 'Courier New', monospace" font-size="10" fill="#8B5CF6" fill-opacity="0.3" text-anchor="end" letter-spacing="2">K-FORGE</text>

  <!-- Shimmer -->
  <rect x="-200" y="115" width="180" height="2.5" rx="1.5" fill="#8B5CF6" fill-opacity="0.5">
    <animate attributeName="x" from="-200" to="920" dur="3s" repeatCount="indefinite"/>
  </rect>
</svg>
