<svg xmlns="http://www.w3.org/2000/svg" width="260" height="36" viewBox="0 0 260 36">
  <defs>
    <linearGradient id="btnGhPBg" x1="0%" y1="0%" x2="100%" y2="100%">
      <stop offset="0%" stop-color="#0D1117"/>
      <stop offset="100%" stop-color="#1A0533"/>
    </linearGradient>
  </defs>
  <rect width="260" height="36" rx="8" fill="url(#btnGhPBg)" stroke="#8B5CF6" stroke-width="1.2"/>

  <!-- GitHub icon -->
  <g transform="translate(20, 18)" fill="#8B5CF6">
    <path d="M 0 -9 C -4.97 -9 -9 -4.97 -9 0 C -9 3.87 -6.57 7.14 -3.14 8.27 C -2.69 8.35 -2.53 8.07 -2.53 7.84 C -2.53 7.63 -2.54 7.08 -2.54 6.43 C -5 6.97 -5.61 5.28 -5.61 5.28 C -6.01 4.28 -6.58 4.01 -6.58 4.01 C -7.36 3.46 -6.52 3.47 -6.52 3.47 C -5.66 3.53 -5.21 4.36 -5.21 4.36 C -4.44 5.69 -3.18 5.3 -2.6 5.08 C -2.52 4.5 -2.28 4.11 -2.01 3.88 C -4.03 3.65 -6.17 2.86 -6.17 -0.77 C -6.17 -1.81 -5.8 -2.67 -5.19 -3.35 C -5.28 -3.58 -5.61 -4.57 -5.1 -5.89 C -5.1 -5.89 -4.37 -6.13 -2.55 -4.87 C -1.78 -5.07 -0.98 -5.17 -0.19 -5.17 C 0.6 -5.17 1.4 -5.07 2.17 -4.87 C 3.99 -6.13 4.72 -5.89 4.72 -5.89 C 5.23 -4.57 4.9 -3.58 4.81 -3.35 C 5.42 -2.67 5.79 -1.81 5.79 -0.77 C 5.79 2.87 3.64 3.64 1.61 3.87 C 1.96 4.16 2.27 4.73 2.27 5.59 C 2.27 6.82 2.26 7.77 2.26 7.84 C 2.26 8.07 2.42 8.35 2.87 8.27 C 6.3 7.14 8.73 3.87 8.73 0 C 8.73 -4.97 4.97 -9 0 -9 Z"/>
  </g>

  <line x1="46" y1="8" x2="46" y2="28" stroke="#8B5CF6" stroke-opacity="0.3" stroke-width="1"/>
  <text x="60" y="23" font-family="'Fira Code', 'Courier New', monospace" font-size="12" font-weight="700" fill="#8B5CF6" letter-spacing="0.8">GitHub · K-Forge</text>
</svg>
